<svg width="256" height="289" viewBox="0 0 256 289" fill="none" xmlns="http://www.w3.org/2000/svg">
<path d="M181.333 43.167C184.279 43.167 186.666 45.5545 186.666 48.5V75.167H224C232.836 75.1672 240 82.3305 240 91.167V155.167C240 164.003 232.836 171.167 224 171.167H186.666V240.5C186.666 243.445 184.278 245.833 181.333 245.833C178.388 245.833 176 243.445 176 240.5V171.167H80V240.5C79.9998 243.445 77.6122 245.833 74.667 245.833C71.7216 245.833 69.3342 243.445 69.334 240.5V171.167H32C23.1637 171.167 16.0002 164.003 16 155.167V91.167C16 82.3305 23.1636 75.1672 32 75.167H69.334V48.5C69.334 45.5545 71.7215 43.167 74.667 43.167C77.6124 43.1672 80 45.5546 80 48.5V75.167H85.2969C85.321 75.1668 85.345 75.1668 85.3691 75.167H149.297C149.321 75.1668 149.345 75.1668 149.369 75.167H176V48.5C176 45.5546 178.388 43.1672 181.333 43.167ZM26.666 155.167C26.6662 158.112 29.0547 160.5 32 160.5H93.791L26.666 93.375V155.167ZM172.875 160.5H221.791L147.123 85.833H98.209L172.875 160.5ZM108.875 160.5H157.791L83.123 85.833H34.209L108.875 160.5ZM229.333 152.957V91.167C229.333 88.2216 226.945 85.8332 224 85.833H162.209L229.333 152.957Z" fill="#3A3238" fill-opacity="0.65"/>
</svg>
