<svg width="599" height="135" viewBox="0 0 599 135" fill="none" xmlns="http://www.w3.org/2000/svg">
<g clip-path="url(#clip0_150_194)">
<g clip-path="url(#paint0_diamond_150_194_clip_path)" data-figma-skip-parse="true"><g transform="matrix(0.1165 -6.0617e-09 1.47072e-08 0.26503 89 1.11662e-05)"><rect x="0" y="0" width="763.949" height="238.464" fill="url(#paint0_diamond_150_194)" opacity="1" shape-rendering="crispEdges"/><rect x="0" y="0" width="763.949" height="238.464" transform="scale(1 -1)" fill="url(#paint0_diamond_150_194)" opacity="1" shape-rendering="crispEdges"/><rect x="0" y="0" width="763.949" height="238.464" transform="scale(-1 1)" fill="url(#paint0_diamond_150_194)" opacity="1" shape-rendering="crispEdges"/><rect x="0" y="0" width="763.949" height="238.464" transform="scale(-1)" fill="url(#paint0_diamond_150_194)" opacity="1" shape-rendering="crispEdges"/></g></g><path d="M42.9766 37.3457C50.8883 37.3457 57.3027 43.7763 57.3027 51.709V60.3271C57.3027 61.9137 56.0198 63.2 54.4375 63.2002H2.86523C1.28283 63.2002 0 61.9138 0 60.3271V51.709C5.83471e-05 43.7764 6.41368 37.3459 14.3252 37.3457H42.9766ZM103.145 37.3457C111.056 37.3459 117.47 43.7764 117.47 51.709V60.3271C117.47 61.9138 116.187 63.2002 114.604 63.2002H63.0322C61.45 63.2 60.167 61.9137 60.167 60.3271V51.709C60.1671 43.7763 66.5815 37.3457 74.4932 37.3457H103.145ZM163.312 37.3457C171.223 37.3457 177.637 43.7763 177.637 51.709V60.3271C177.637 61.9136 176.355 63.2 174.772 63.2002H123.2C121.618 63.2002 120.335 61.9138 120.335 60.3271V51.709C120.335 43.7764 126.749 37.3458 134.66 37.3457H163.312ZM28.6514 0C37.3543 0.000111109 44.4091 7.07376 44.4092 15.7998C44.4092 24.5259 37.3543 31.5995 28.6514 31.5996C19.9483 31.5996 12.8926 24.526 12.8926 15.7998C12.8927 7.0737 19.9484 0 28.6514 0ZM88.8184 0C97.5214 0 104.577 7.0737 104.577 15.7998C104.577 24.526 97.5214 31.5996 88.8184 31.5996C80.1154 31.5995 73.0605 24.5259 73.0605 15.7998C73.0607 7.07377 80.1155 0.000121437 88.8184 0ZM148.986 0C157.689 0.000172088 164.744 7.0738 164.744 15.7998C164.744 24.5259 157.689 31.5994 148.986 31.5996C140.283 31.5996 133.228 24.526 133.228 15.7998C133.228 7.0737 140.283 0 148.986 0Z" data-figma-gradient-fill="{&#34;type&#34;:&#34;GRADIENT_DIAMOND&#34;,&#34;stops&#34;:[{&#34;color&#34;:{&#34;r&#34;:0.74901962280273438,&#34;g&#34;:0.26274511218070984,&#34;b&#34;:0.0,&#34;a&#34;:1.0},&#34;position&#34;:0.00054793508024886250},{&#34;color&#34;:{&#34;r&#34;:0.52941179275512695,&#34;g&#34;:0.015686275437474251,&#34;b&#34;:0.78431373834609985,&#34;a&#34;:1.0},&#34;position&#34;:0.15999999642372131},{&#34;color&#34;:{&#34;r&#34;:0.0039215688593685627,&#34;g&#34;:0.55686277151107788,&#34;b&#34;:0.73725491762161255,&#34;a&#34;:1.0},&#34;position&#34;:0.34000000357627869},{&#34;color&#34;:{&#34;r&#34;:0.64313727617263794,&#34;g&#34;:0.53333336114883423,&#34;b&#34;:0.078431375324726105,&#34;a&#34;:1.0},&#34;position&#34;:0.51442307233810425},{&#34;color&#34;:{&#34;r&#34;:0.79326921701431274,&#34;g&#34;:0.21153847873210907,&#34;b&#34;:0.0,&#34;a&#34;:1.0},&#34;position&#34;:0.68000000715255737},{&#34;color&#34;:{&#34;r&#34;:0.0,&#34;g&#34;:0.32011529803276062,&#34;b&#34;:0.64023059606552124,&#34;a&#34;:1.0},&#34;position&#34;:0.84134614467620850},{&#34;color&#34;:{&#34;r&#34;:0.0,&#34;g&#34;:0.50196081399917603,&#34;b&#34;:0.039215687662363052,&#34;a&#34;:1.0},&#34;position&#34;:1.0}],&#34;stopsVar&#34;:[{&#34;color&#34;:{&#34;r&#34;:0.74901962280273438,&#34;g&#34;:0.26274511218070984,&#34;b&#34;:0.0,&#34;a&#34;:1.0},&#34;position&#34;:0.00054793508024886250},{&#34;color&#34;:{&#34;r&#34;:0.52941179275512695,&#34;g&#34;:0.015686275437474251,&#34;b&#34;:0.78431373834609985,&#34;a&#34;:1.0},&#34;position&#34;:0.15999999642372131},{&#34;color&#34;:{&#34;r&#34;:0.0039215688593685627,&#34;g&#34;:0.55686277151107788,&#34;b&#34;:0.73725491762161255,&#34;a&#34;:1.0},&#34;position&#34;:0.34000000357627869},{&#34;color&#34;:{&#34;r&#34;:0.64313727617263794,&#34;g&#34;:0.53333336114883423,&#34;b&#34;:0.078431375324726105,&#34;a&#34;:1.0},&#34;position&#34;:0.51442307233810425},{&#34;color&#34;:{&#34;r&#34;:0.79326921701431274,&#34;g&#34;:0.21153847873210907,&#34;b&#34;:0.0,&#34;a&#34;:1.0},&#34;position&#34;:0.68000000715255737},{&#34;color&#34;:{&#34;r&#34;:0.0,&#34;g&#34;:0.32011529803276062,&#34;b&#34;:0.64023059606552124,&#34;a&#34;:1.0},&#34;position&#34;:0.84134614467620850},{&#34;color&#34;:{&#34;r&#34;:0.0,&#34;g&#34;:0.50196081399917603,&#34;b&#34;:0.039215687662363052,&#34;a&#34;:1.0},&#34;position&#34;:1.0}],&#34;transform&#34;:{&#34;m00&#34;:233.0,&#34;m01&#34;:2.9414308301056735e-05,&#34;m02&#34;:-27.500009536743164,&#34;m10&#34;:-1.2123407941544428e-05,&#34;m11&#34;:530.06085205078125,&#34;m12&#34;:-265.03039550781250},&#34;opacity&#34;:1.0,&#34;blendMode&#34;:&#34;NORMAL&#34;,&#34;visible&#34;:true}"/>
<path d="M42.9766 109.164C50.8883 109.164 57.3027 115.595 57.3027 123.527V132.146C57.3027 133.732 56.0198 135.018 54.4375 135.019H2.86523C1.28284 135.019 2.26161e-05 133.732 0 132.146V123.527C0 115.595 6.41364 109.164 14.3252 109.164H42.9766ZM103.145 109.164C111.056 109.164 117.47 115.595 117.47 123.527V132.146C117.47 133.732 116.187 135.019 114.604 135.019H63.0322C61.45 135.018 60.167 133.732 60.167 132.146V123.527C60.167 115.595 66.5814 109.164 74.4932 109.164H103.145ZM163.312 109.164C171.223 109.164 177.637 115.595 177.637 123.527V132.146C177.637 133.732 176.355 135.018 174.772 135.019H123.2C121.618 135.019 120.335 133.732 120.335 132.146V123.527C120.335 115.595 126.749 109.164 134.66 109.164H163.312ZM223.479 109.164C231.391 109.164 237.805 115.595 237.805 123.527V132.146C237.805 133.732 236.522 135.019 234.939 135.019H183.367C181.785 135.018 180.502 133.732 180.502 132.146V123.527C180.502 115.595 186.916 109.164 194.828 109.164H223.479ZM283.646 109.164C291.558 109.164 297.972 115.595 297.972 123.527V132.146C297.972 133.732 296.69 135.018 295.107 135.019H243.535C241.953 135.019 240.67 133.732 240.67 132.146V123.527C240.67 115.595 247.084 109.164 254.995 109.164H283.646ZM343.813 109.164C351.725 109.164 358.14 115.595 358.14 123.527V132.146C358.14 133.732 356.857 135.019 355.274 135.019H303.702C302.12 135.018 300.837 133.732 300.837 132.146V123.527C300.837 115.595 307.251 109.164 315.163 109.164H343.813ZM403.981 109.164C411.893 109.164 418.307 115.595 418.307 123.527V132.146C418.307 133.732 417.024 135.019 415.441 135.019H363.87C362.288 135.019 361.005 133.732 361.005 132.146V123.527C361.005 115.595 367.418 109.164 375.33 109.164H403.981ZM464.148 109.164C472.06 109.164 478.475 115.595 478.475 123.527V132.146C478.475 133.732 477.192 135.019 475.609 135.019H424.037C422.455 135.018 421.172 133.732 421.172 132.146V123.527C421.172 115.595 427.586 109.164 435.498 109.164H464.148ZM524.316 109.164C532.228 109.164 538.642 115.595 538.642 123.527V132.146C538.642 133.732 537.359 135.019 535.776 135.019H484.205C482.623 135.019 481.34 133.732 481.34 132.146V123.527C481.34 115.595 487.753 109.164 495.665 109.164H524.316ZM584.483 109.164C592.395 109.164 598.81 115.595 598.81 123.527V132.146C598.81 133.732 597.527 135.019 595.944 135.019H544.372C542.79 135.019 541.507 133.732 541.507 132.146V123.527C541.507 115.595 547.921 109.164 555.833 109.164H584.483ZM28.6514 71.8184C37.3543 71.8185 44.4092 78.892 44.4092 87.6182C44.4092 96.3443 37.3543 103.418 28.6514 103.418C19.9483 103.418 12.8926 96.3444 12.8926 87.6182C12.8926 78.892 19.9483 71.8184 28.6514 71.8184ZM88.8184 71.8184C97.5214 71.8184 104.577 78.892 104.577 87.6182C104.577 96.3444 97.5214 103.418 88.8184 103.418C80.1154 103.418 73.0605 96.3443 73.0605 87.6182C73.0606 78.892 80.1154 71.8185 88.8184 71.8184ZM148.986 71.8184C157.689 71.8185 164.744 78.8921 164.744 87.6182C164.744 96.3443 157.689 103.418 148.986 103.418C140.283 103.418 133.228 96.3444 133.228 87.6182C133.228 78.892 140.283 71.8184 148.986 71.8184ZM209.153 71.8184C217.856 71.8184 224.911 78.892 224.911 87.6182C224.911 96.3444 217.856 103.418 209.153 103.418C200.45 103.418 193.396 96.3443 193.396 87.6182C193.396 78.892 200.45 71.8184 209.153 71.8184ZM269.321 71.8184C278.024 71.8185 285.079 78.8921 285.079 87.6182C285.079 96.3442 278.024 103.418 269.321 103.418C260.618 103.418 253.562 96.3444 253.562 87.6182C253.563 78.892 260.618 71.8184 269.321 71.8184ZM329.488 71.8184C338.191 71.8184 345.246 78.892 345.246 87.6182C345.246 96.3444 338.191 103.418 329.488 103.418C320.785 103.418 313.73 96.3443 313.73 87.6182C313.73 78.892 320.785 71.8184 329.488 71.8184ZM389.656 71.8184C398.359 71.8186 405.414 78.8921 405.414 87.6182C405.414 96.3442 398.359 103.418 389.656 103.418C380.953 103.418 373.897 96.3444 373.897 87.6182C373.897 78.892 380.953 71.8184 389.656 71.8184ZM449.823 71.8184C458.526 71.8184 465.581 78.892 465.581 87.6182C465.581 96.3444 458.526 103.418 449.823 103.418C441.12 103.418 434.065 96.3444 434.065 87.6182C434.065 78.892 441.12 71.8184 449.823 71.8184ZM509.991 71.8184C518.694 71.8186 525.749 78.8921 525.749 87.6182C525.749 96.3442 518.694 103.418 509.991 103.418C501.288 103.418 494.232 96.3444 494.232 87.6182C494.232 78.892 501.288 71.8184 509.991 71.8184ZM570.158 71.8184C578.861 71.8184 585.916 78.892 585.916 87.6182C585.916 96.3444 578.861 103.418 570.158 103.418C561.455 103.418 554.4 96.3444 554.4 87.6182C554.4 78.892 561.455 71.8184 570.158 71.8184ZM223.479 37.3457C231.391 37.3459 237.805 43.7764 237.805 51.709V60.3271C237.805 61.9138 236.522 63.2002 234.939 63.2002H183.367C181.785 63.2001 180.502 61.9137 180.502 60.3271V51.709C180.502 43.7763 186.916 37.3457 194.828 37.3457H223.479ZM283.646 37.3457C291.558 37.3457 297.972 43.7763 297.972 51.709V60.3271C297.972 61.9136 296.69 63.2 295.107 63.2002H243.535C241.953 63.2002 240.67 61.9138 240.67 60.3271V51.709C240.67 43.7764 247.084 37.3458 254.995 37.3457H283.646ZM343.813 37.3457C351.725 37.3457 358.14 43.7763 358.14 51.709V60.3271C358.14 61.9137 356.857 63.2002 355.274 63.2002H303.702C302.12 63.2001 300.837 61.9137 300.837 60.3271V51.709C300.837 43.7763 307.251 37.3457 315.163 37.3457H343.813ZM403.981 37.3457C411.893 37.3457 418.307 43.7763 418.307 51.709V60.3271C418.307 61.9138 417.024 63.2002 415.441 63.2002H363.87C362.288 63.2002 361.005 61.9138 361.005 60.3271V51.709C361.005 43.7763 367.418 37.3458 375.33 37.3457H403.981ZM464.148 37.3457C472.06 37.3457 478.475 43.7763 478.475 51.709V60.3271C478.475 61.9137 477.192 63.2002 475.609 63.2002H424.037C422.455 63.2001 421.172 61.9137 421.172 60.3271V51.709C421.172 43.7763 427.586 37.3457 435.498 37.3457H464.148ZM524.316 37.3457C532.228 37.3457 538.642 43.7763 538.642 51.709V60.3271C538.642 61.9138 537.359 63.2002 535.776 63.2002H484.205C482.623 63.2002 481.34 61.9138 481.34 60.3271V51.709C481.34 43.7763 487.753 37.3458 495.665 37.3457H524.316ZM584.483 37.3457C592.395 37.3457 598.81 43.7763 598.81 51.709V60.3271C598.81 61.9137 597.527 63.2001 595.944 63.2002H544.372C542.79 63.2002 541.507 61.9137 541.507 60.3271V51.709C541.507 43.7763 547.921 37.3457 555.833 37.3457H584.483ZM209.153 0C217.856 0 224.911 7.0737 224.911 15.7998C224.911 24.526 217.856 31.5996 209.153 31.5996C200.45 31.5995 193.396 24.5259 193.396 15.7998C193.396 7.07375 200.45 8.62977e-05 209.153 0ZM269.321 0C278.024 0.00018139 285.079 7.07381 285.079 15.7998C285.079 24.5259 278.024 31.5994 269.321 31.5996C260.618 31.5996 253.562 24.526 253.562 15.7998C253.563 7.0737 260.618 0 269.321 0ZM329.488 0C338.191 0 345.246 7.0737 345.246 15.7998C345.246 24.526 338.191 31.5996 329.488 31.5996C320.785 31.5996 313.73 24.526 313.73 15.7998C313.731 7.07371 320.785 2.22206e-05 329.488 0ZM389.656 0C398.359 0.000227382 405.414 7.07384 405.414 15.7998C405.414 24.5259 398.359 31.5994 389.656 31.5996C380.953 31.5996 373.897 24.526 373.897 15.7998C373.898 7.0737 380.953 0 389.656 0ZM449.823 0C458.526 0 465.581 7.0737 465.581 15.7998C465.581 24.526 458.526 31.5996 449.823 31.5996C441.12 31.5996 434.065 24.526 434.065 15.7998C434.066 7.07371 441.12 1.88616e-05 449.823 0ZM509.991 0C518.694 0.000238492 525.749 7.07384 525.749 15.7998C525.749 24.5259 518.694 31.5994 509.991 31.5996C501.288 31.5996 494.232 24.526 494.232 15.7998C494.233 7.0737 501.288 0 509.991 0ZM570.158 0C578.861 9.04385e-06 585.916 7.0737 585.916 15.7998C585.916 24.526 578.861 31.5996 570.158 31.5996C561.455 31.5996 554.4 24.526 554.4 15.7998C554.4 7.0737 561.455 0 570.158 0Z" fill="url(#paint1_linear_150_194)"/>
</g>
<defs>
<clipPath id="paint0_diamond_150_194_clip_path"><path d="M42.9766 37.3457C50.8883 37.3457 57.3027 43.7763 57.3027 51.709V60.3271C57.3027 61.9137 56.0198 63.2 54.4375 63.2002H2.86523C1.28283 63.2002 0 61.9138 0 60.3271V51.709C5.83471e-05 43.7764 6.41368 37.3459 14.3252 37.3457H42.9766ZM103.145 37.3457C111.056 37.3459 117.47 43.7764 117.47 51.709V60.3271C117.47 61.9138 116.187 63.2002 114.604 63.2002H63.0322C61.45 63.2 60.167 61.9137 60.167 60.3271V51.709C60.1671 43.7763 66.5815 37.3457 74.4932 37.3457H103.145ZM163.312 37.3457C171.223 37.3457 177.637 43.7763 177.637 51.709V60.3271C177.637 61.9136 176.355 63.2 174.772 63.2002H123.2C121.618 63.2002 120.335 61.9138 120.335 60.3271V51.709C120.335 43.7764 126.749 37.3458 134.66 37.3457H163.312ZM28.6514 0C37.3543 0.000111109 44.4091 7.07376 44.4092 15.7998C44.4092 24.5259 37.3543 31.5995 28.6514 31.5996C19.9483 31.5996 12.8926 24.526 12.8926 15.7998C12.8927 7.0737 19.9484 0 28.6514 0ZM88.8184 0C97.5214 0 104.577 7.0737 104.577 15.7998C104.577 24.526 97.5214 31.5996 88.8184 31.5996C80.1154 31.5995 73.0605 24.5259 73.0605 15.7998C73.0607 7.07377 80.1155 0.000121437 88.8184 0ZM148.986 0C157.689 0.000172088 164.744 7.0738 164.744 15.7998C164.744 24.5259 157.689 31.5994 148.986 31.5996C140.283 31.5996 133.228 24.526 133.228 15.7998C133.228 7.0737 140.283 0 148.986 0Z"/></clipPath><linearGradient id="paint0_diamond_150_194" x1="0" y1="0" x2="500" y2="500" gradientUnits="userSpaceOnUse">
<stop offset="0.000547935" stop-color="#BF4300"/>
<stop offset="0.16" stop-color="#8704C8"/>
<stop offset="0.34" stop-color="#018EBC"/>
<stop offset="0.514423" stop-color="#A48814"/>
<stop offset="0.68" stop-color="#CA3600"/>
<stop offset="0.841346" stop-color="#0052A3"/>
<stop offset="1" stop-color="#00800A"/>
</linearGradient>
<linearGradient id="paint1_linear_150_194" x1="0" y1="67.5093" x2="598.81" y2="67.5093" gradientUnits="userSpaceOnUse">
<stop stop-color="#3A3238"/>
<stop offset="1" stop-color="#E8E8E8" stop-opacity="0"/>
</linearGradient>
<clipPath id="clip0_150_194">
<rect width="599" height="135" fill="white"/>
</clipPath>
</defs>
</svg>
